<?xml version="1.0" encoding="UTF-8" standalone="no"?>
<svg
   xmlns:dc="http://purl.org/dc/elements/1.1/"
   xmlns:cc="http://creativecommons.org/ns#"
   xmlns:rdf="http://www.w3.org/1999/02/22-rdf-syntax-ns#"
   xmlns:svg="http://www.w3.org/2000/svg"
   xmlns="http://www.w3.org/2000/svg"
   xmlns:xlink="http://www.w3.org/1999/xlink"
   xmlns:sodipodi="http://sodipodi.sourceforge.net/DTD/sodipodi-0.dtd"
   xmlns:inkscape="http://www.inkscape.org/namespaces/inkscape"
   width="928.31525"
   height="269.93427"
   viewBox="0 0 742.6522 215.94742"
   version="1.1"
   id="svg3115"
   inkscape:version="0.91 r13725"
   sodipodi:docname="w0bm.svg"
   inkscape:export-filename="E:\Downloads\Otter2.png"
   inkscape:export-xdpi="163.74091"
   inkscape:export-ydpi="163.74091">
  <metadata
     id="metadata3205">
    <rdf:RDF>
      <cc:Work
         rdf:about="">
        <dc:format>image/svg+xml</dc:format>
        <dc:type
           rdf:resource="http://purl.org/dc/dcmitype/StillImage" />
        <dc:title></dc:title>
      </cc:Work>
    </rdf:RDF>
  </metadata>
  <defs
     id="defs3203">
    <clipPath
       clipPathUnits="userSpaceOnUse"
       id="clipPath3074">
      <rect
         style="fill:#0000ff;fill-rule:evenodd;stroke:#000000;stroke-width:0.83058417px;stroke-linecap:butt;stroke-linejoin:miter;stroke-opacity:1"
         id="rect3076"
         width="238.50562"
         height="222.02641"
         x="-6.1644015"
         y="-6.0789886" />
    </clipPath>
    <filter
       inkscape:collect="always"
       id="filter3731"
       color-interpolation-filters="sRGB">
      <feGaussianBlur
         inkscape:collect="always"
         stdDeviation="0.82730657"
         id="feGaussianBlur3733" />
    </filter>
    <linearGradient
       id="linearGradient3600">
      <stop
         style="stop-color:#1fb2b0;stop-opacity:1;"
         offset="0"
         id="stop3602" />
      <stop
         style="stop-color:#2180ac;stop-opacity:1;"
         offset="1"
         id="stop3604" />
    </linearGradient>
    <linearGradient
       inkscape:collect="always"
       xlink:href="#linearGradient3632"
       id="linearGradient3050"
       gradientUnits="userSpaceOnUse"
       gradientTransform="matrix(2.0097425,0,0,2.0097425,409.81763,109.54288)"
       x1="6.4826794"
       y1="4.543263"
       x2="25.363527"
       y2="35.227882" />
    <linearGradient
       id="linearGradient3632">
      <stop
         style="stop-color:#ffffff;stop-opacity:0.54901963;"
         offset="0"
         id="stop3634" />
      <stop
         style="stop-color:#ffffff;stop-opacity:0;"
         offset="1"
         id="stop3636" />
    </linearGradient>
    <linearGradient
       inkscape:collect="always"
       xlink:href="#linearGradient3600"
       id="linearGradient3477"
       gradientUnits="userSpaceOnUse"
       x1="20.256382"
       y1="2.546674"
       x2="20.256382"
       y2="46.881901" />
    <linearGradient
       inkscape:collect="always"
       xlink:href="#linearGradient3632"
       id="linearGradient3479"
       gradientUnits="userSpaceOnUse"
       gradientTransform="matrix(2.0097425,0,0,2.0097425,409.81763,109.54288)"
       x1="6.4826794"
       y1="4.543263"
       x2="25.363527"
       y2="35.227882" />
    <linearGradient
       inkscape:collect="always"
       xlink:href="#linearGradient3600"
       id="linearGradient3044"
       gradientUnits="userSpaceOnUse"
       x1="20.256382"
       y1="2.546674"
       x2="20.256382"
       y2="46.881901" />
    <linearGradient
       inkscape:collect="always"
       xlink:href="#linearGradient3632"
       id="linearGradient3046"
       gradientUnits="userSpaceOnUse"
       gradientTransform="matrix(2.0097425,0,0,2.0097425,409.81763,109.54288)"
       x1="6.4826794"
       y1="4.543263"
       x2="25.363527"
       y2="35.227882" />
    <linearGradient
       inkscape:collect="always"
       xlink:href="#linearGradient3632"
       id="linearGradient3049"
       gradientUnits="userSpaceOnUse"
       gradientTransform="matrix(1.7939383,0,0,1.7939383,158.70201,126.18867)"
       x1="6.4826794"
       y1="4.543263"
       x2="25.363527"
       y2="35.227882" />
    <linearGradient
       inkscape:collect="always"
       xlink:href="#linearGradient3600"
       id="linearGradient3821"
       gradientUnits="userSpaceOnUse"
       x1="20.256382"
       y1="2.546674"
       x2="20.256382"
       y2="46.881901" />
  </defs>
  <sodipodi:namedview
     pagecolor="#ffffff"
     bordercolor="#666666"
     borderopacity="1"
     objecttolerance="10"
     gridtolerance="10"
     guidetolerance="10"
     inkscape:pageopacity="0"
     inkscape:pageshadow="2"
     inkscape:window-width="1920"
     inkscape:window-height="1019"
     id="namedview3201"
     showgrid="false"
     inkscape:zoom="1.3730909"
     inkscape:cx="466.29964"
     inkscape:cy="141.30405"
     inkscape:window-x="0"
     inkscape:window-y="29"
     inkscape:window-maximized="1"
     inkscape:current-layer="svg3115"
     fit-margin-top="0"
     fit-margin-left="0"
     fit-margin-right="0"
     fit-margin-bottom="0"
     showborder="true">
    <inkscape:grid
       type="xygrid"
       id="grid3207"
       empspacing="5"
       visible="true"
       enabled="true"
       snapvisiblegridlinesonly="true"
       originx="-1.5472e-005px"
       originy="-73.815699px" />
  </sodipodi:namedview>
  <g
     id="g3023"
     clip-path="url(#clipPath3074)"
     transform="translate(-1.2377601e-5,0)">
    <path
       style="fill:#000000"
       inkscape:connector-curvature="0"
       id="path3119"
       d="m 110.21,0 13.57,0 c 4.77,1.95 10,0.41 14.95,1.24 6.21,1.14 12.59,1.5 18.64,3.39 10.45,3.65 20.58,8.68 28.79,16.19 2.24,3.06 3.94,6.68 7.36,8.65 3.7,3.24 9.26,3.6 12.26,7.78 5.5,7.04 4.9,16.69 2.27,24.75 1.55,8.75 6.35,16.86 5.98,25.95 -0.25,5.83 0.88,11.94 -1.64,17.44 -2.5,10.05 -7.17,19.34 -11.15,28.86 -3.48,6.39 -6.27,13.33 -6.99,20.62 0.86,3.57 1.77,7.14 2.06,10.82 1.25,5.19 -0.13,10.76 2.28,15.71 2.59,10.2 10.45,18.09 12.54,28.48 4.23,10.37 6.15,21.5 8.87,32.32 l 0,18.55 c -0.48,0.4 -1.43,1.21 -1.9,1.61 -1.3,-0.31 -2.59,-0.61 -3.88,-0.92 -0.37,-7.07 0.2,-14.23 -1.49,-21.18 -3.52,-14.8 -7.21,-29.87 -14.84,-43.19 -3.28,-5.23 -5.67,-11.09 -6.69,-17.19 -0.32,-6 -0.81,-12.02 -2.23,-17.88 -2.58,-9.47 0.21,-19.49 4.5,-28.02 3.09,-5.39 4.81,-11.41 7.54,-16.97 3.14,-6.13 4.33,-12.97 6.58,-19.43 2.48,-10.7 -3.02,-20.62 -5.45,-30.73 -0.87,-5.8 0.79,-11.5 0.92,-17.26 -0.31,-1.99 -0.89,-3.95 -1.85,-5.72 -2.01,-4.57 -7.54,-5.1 -11.1,-7.97 C 186.37,33.64 184,29.92 181.5,26.46 176.39,20.44 168.91,17.39 161.97,14.04 156.86,11.82 151.67,9.53 146.09,8.9 140.74,8.18 135.44,6.91 130.01,7 c -6.3,0.17 -12.62,-1.96 -18.84,-0.08 -3.69,0.14 -7.42,0.22 -11,1.21 -11.42,3.05 -22.85,6.35 -33.54,11.47 -6.36,2.95 -13.65,5.13 -18.12,10.89 -3.65,4.21 -6.27,9.14 -9.54,13.62 3.43,-0.5 6.86,-1.01 10.32,-1.28 0.34,1.69 0.65,3.38 0.95,5.07 -1.61,0.77 -3.23,1.56 -4.9,2.21 -4.67,1.35 -9.51,0.61 -14.27,0.47 -3.85,0.44 -7.57,1.81 -11.05,3.46 -3.41,1.52 -4.42,5.88 -3.32,9.19 2.04,8.99 10.34,14.12 15.44,21.21 -0.07,1.74 -0.08,3.47 -0.31,5.2 -1.11,0.85 -2.42,1.39 -3.67,2.02 0.91,3.97 1.6,8 2.02,12.06 -0.03,3.44 -0.1,6.89 -0.16,10.34 0,7.44 -3.12,14.38 -4.28,21.65 -1.2,7.7 -2.02,15.49 -1.76,23.29 -0.06,6.27 0.65,12.7 -1.21,18.8 -1.94,5.98 -1.77,12.37 -3.58,18.38 -2.79,9.75 0.29,20.05 -2.14,29.85 -1.34,5.96 -3.01,11.86 -5.56,17.42 -2.56,5.71 -3.02,12.54 -7.57,17.2 C 2.63,260.05 1.3,259.53 0,258.96 l 0,-2.95 c 1,-3.04 1.82,-6.12 2.86,-9.15 2.36,-7.53 6.42,-14.53 7.59,-22.42 2.8,-8.52 0.98,-17.55 1.65,-26.32 0.83,-5.38 2.44,-10.64 2.94,-16.08 0.42,-4.49 2.2,-8.71 2.88,-13.15 0.25,-4.63 0.01,-9.26 0.08,-13.89 -0.35,-12.23 1.42,-24.43 4.83,-36.18 2.89,-9.28 0.3,-18.93 -1.5,-28.13 C 20.21,87.7 19.82,84.56 19.91,81.39 11.33,74.04 6.7,60.74 12.3,50.3 15.75,47.21 20.63,46.43 24.89,44.9 27.61,43.76 31.57,44.09 32.98,41 37.62,32.45 43.22,23.87 51.69,18.71 62.54,14.06 73.01,8.33 84.57,5.57 89.74,3.91 94.93,2.31 100.25,1.22 103.57,0.77 107.05,1.4 110.21,0 z" />
    <path
       style="fill:#c57a43"
       inkscape:connector-curvature="0"
       id="path3123"
       d="m 111.17,6.92 c 6.22,-1.88 12.54,0.25 18.84,0.08 5.43,-0.09 10.73,1.18 16.08,1.9 5.58,0.63 10.77,2.92 15.88,5.14 6.94,3.35 14.42,6.4 19.53,12.42 2.5,3.46 4.87,7.18 8.61,9.44 3.56,2.87 9.09,3.4 11.1,7.97 -1.94,-1.25 -3.98,-2.35 -6.02,-3.42 1.31,5.18 3.52,10.07 6.29,14.64 0.53,-1.83 1.09,-3.66 1.58,-5.5 -0.13,5.76 -1.79,11.46 -0.92,17.26 -3.85,-2.45 -8.02,-4.42 -11.53,-7.37 -3.07,-2.47 -5.76,-5.36 -7.99,-8.61 -4.23,-0.2 -9.11,0.47 -11.38,4.55 -0.73,3.6 -0.39,7.6 1.52,10.79 1.69,2.69 4.84,3.6 7.61,4.73 3.04,2.22 5.96,4.62 9.32,6.34 2.63,1.56 6.09,2.82 6.97,6.1 0.72,3.11 1.34,7.37 -2.01,9.19 -5.82,-2.11 -10.98,-5.92 -17.25,-6.78 -0.17,-0.72 -0.51,-2.17 -0.68,-2.89 -2.53,0.38 -5.03,1.08 -7.6,0.97 -4.92,-0.51 -9.38,-2.93 -14.23,-3.73 -3.2,-0.33 -6.47,-0.43 -9.66,0.09 -2.63,0.82 -4.8,2.61 -7.35,3.61 -3.85,1.67 -8.14,1.09 -12.21,1.28 0.41,1.12 0.82,2.25 1.25,3.37 -0.34,0.33 -1.02,1 -1.36,1.33 -9.75,5.54 -20.3,12.31 -32.06,10.02 -1.6,-0.26 -3.21,-0.12 -4.78,0.18 -1.54,-1.01 -3.42,-1.82 -4.35,-3.5 -0.43,-2 -0.41,-4.06 -0.51,-6.09 4.58,-2.1 9.26,-4.16 13.27,-7.28 3.27,-2.55 5.82,-5.86 8.55,-8.96 3.72,-2.05 5.1,-6.82 4.04,-10.77 -1.62,-3.51 -4.58,-6.53 -8.13,-8.11 -4.56,-1.03 -9.72,-0.1 -13.4,2.88 -3.67,2.75 -8.07,4.44 -11.32,7.77 -2,1.39 -4.15,2.55 -6.32,3.65 -6.65,2.59 -13.1,6.68 -20.49,6.37 -4.7,-0.01 -10.39,-0.8 -13.46,3.68 l -0.46,0.49 c 3.4,-5.95 5.48,-12.52 8.33,-18.74 1.76,-3.53 1.55,-7.53 0.87,-11.3 1.67,-0.65 3.29,-1.44 4.9,-2.21 -0.3,-1.69 -0.61,-3.38 -0.95,-5.07 3.56,-4.89 5.71,-11.21 11.24,-14.31 4.42,-2.51 8.76,-5.15 13.04,-7.9 11.68,-6.69 25.45,-8.13 37.6,-13.7 z" />
    <path
       style="fill:#a36638"
       inkscape:connector-curvature="0"
       id="path3125"
       d="m 100.17,8.13 c 3.58,-0.99 7.31,-1.07 11,-1.21 -12.15,5.57 -25.92,7.01 -37.6,13.7 -4.28,2.75 -8.62,5.39 -13.04,7.9 -5.53,3.1 -7.68,9.42 -11.24,14.31 -3.46,0.27 -6.89,0.78 -10.32,1.28 3.27,-4.48 5.89,-9.41 9.54,-13.62 4.47,-5.76 11.76,-7.94 18.12,-10.89 10.69,-5.12 22.12,-8.42 33.54,-11.47 z" />
    <path
       style="fill:#ffa6a5"
       inkscape:connector-curvature="0"
       id="path3127"
       d="m 195.19,40.45 c 2.04,1.07 4.08,2.17 6.02,3.42 0.96,1.77 1.54,3.73 1.85,5.72 -0.49,1.84 -1.05,3.67 -1.58,5.5 -2.77,-4.57 -4.98,-9.46 -6.29,-14.64 z" />
    <path
       style="fill:#000000"
       inkscape:connector-curvature="0"
       id="path3129"
       d="m 168.97,50.1 c 4.36,-2.1 8.5,-5.31 13.56,-5.25 -0.71,1.15 -1.18,2.62 -2.54,3.16 -3.64,1.78 -7.33,3.42 -10.89,5.35 -0.03,-0.81 -0.1,-2.44 -0.13,-3.26 z" />
    <path
       style="fill:#000000"
       inkscape:connector-curvature="0"
       id="path3131"
       d="m 91.11,45.63 c 5.97,1.59 11.51,4.51 16.96,7.36 -0.05,0.86 -0.15,2.57 -0.2,3.42 -5.76,-2.19 -11.36,-4.77 -16.91,-7.44 0.04,-0.83 0.11,-2.51 0.15,-3.34 z" />
    <path
       style="fill:#a36638"
       inkscape:connector-curvature="0"
       id="path3133"
       d="m 20.02,54.04 c 3.48,-1.65 7.2,-3.02 11.05,-3.46 4.76,0.14 9.6,0.88 14.27,-0.47 0.68,3.77 0.89,7.77 -0.87,11.3 -2.85,6.22 -4.93,12.79 -8.33,18.74 -1.29,1.47 -2.65,2.88 -4,4.29 -5.1,-7.09 -13.4,-12.22 -15.44,-21.21 -1.1,-3.31 -0.09,-7.67 3.32,-9.19 z" />
    <path
       style="fill:#000000"
       inkscape:connector-curvature="0"
       id="path3135"
       d="m 171.24,55.42 c 2.27,-4.08 7.15,-4.75 11.38,-4.55 2.23,3.25 4.92,6.14 7.99,8.61 -3.62,3.66 -5.37,9.15 -10.24,11.46 -2.77,-1.13 -5.92,-2.04 -7.61,-4.73 -1.91,-3.19 -2.25,-7.19 -1.52,-10.79 z" />
    <path
       style="fill:#ffa6a5"
       inkscape:connector-curvature="0"
       id="path3137"
       d="m 28.44,53.41 c 2.3,-0.76 5.31,-0.91 6.9,1.29 3.53,3.2 2.99,8.37 1.96,12.55 -0.74,3.36 -1.81,7.5 -5.67,8.41 -1.52,0.91 -2.8,-0.49 -3.98,-1.28 -4.84,-3.23 -6.94,-9.07 -8.4,-14.44 0.92,-3.99 5.97,-4.9 9.19,-6.53 z" />
    <path
       style="fill:#4d4d4d"
       inkscape:connector-curvature="0"
       id="path3139"
       d="m 174.28,58.34 c 1.39,-1.82 3.18,-3.28 4.87,-4.83 1.71,2.12 3.26,4.36 4.73,6.66 -1.16,2.39 -2.3,4.79 -3.42,7.2 -3.05,-2.07 -6.44,-4.98 -6.18,-9.03 z" />
    <path
       style="fill:#000000"
       inkscape:connector-curvature="0"
       id="path3141"
       d="m 88.19,58.19 c 3.68,-2.98 8.84,-3.91 13.4,-2.88 3.55,1.58 6.51,4.6 8.13,8.11 1.06,3.95 -0.32,8.72 -4.04,10.77 -3.61,1.02 -7.2,4 -11.07,2.29 -3.02,-0.6 -4.88,-3.23 -6.7,-5.46 -0.98,-1.94 -1.89,-3.9 -2.86,-5.84 -2.58,1.22 -5.47,2.53 -8.18,0.78 3.25,-3.33 7.65,-5.02 11.32,-7.77 z" />
    <path
       style="fill:#ffffff"
       inkscape:connector-curvature="0"
       id="path3143"
       d="m 179.14,56.38 c 1.17,-0.64 2.57,1.25 1.72,2.24 -1.16,0.64 -2.57,-1.27 -1.72,-2.24 z" />
    <path
       style="fill:#4d4d4d"
       inkscape:connector-curvature="0"
       id="path3145"
       d="m 96.39,58.3 c 2.98,-0.93 5.39,2.09 7.43,3.85 2.44,1.85 3.53,6.38 0.35,8.03 -2.57,1.5 -5.62,3.61 -8.71,2.53 -2.47,-1.6 -4.5,-4 -5.46,-6.8 0.34,-3.55 2.87,-6.74 6.39,-7.61 z" />
    <path
       style="fill:#fbca92"
       inkscape:connector-curvature="0"
       id="path3147"
       d="m 190.61,59.48 c 3.51,2.95 7.68,4.92 11.53,7.37 2.43,10.11 7.93,20.03 5.45,30.73 -2.25,6.46 -3.44,13.3 -6.58,19.43 -2.73,5.56 -4.45,11.58 -7.54,16.97 -3.25,0.8 -6.77,1.84 -8.69,4.82 -4.24,6.04 -6.43,13.23 -10.23,19.54 -4.03,-0.55 -7.51,2.03 -11.32,2.85 -5.01,1.18 -9.96,3.05 -15.18,2.84 -6.62,-0.14 -13.36,0.57 -19.82,-1.25 -9.8,-2.83 -19.22,-7.22 -29.4,-8.61 C 87.86,153 76.85,149 68.9,141.14 c -1.53,-2.15 -2.59,-4.75 -5.15,-5.91 0.35,1.97 0.8,3.92 1.45,5.81 -8.8,-4.59 -17.44,-9.71 -24.66,-16.59 -3.11,-2.99 -4.88,-7 -6.58,-10.88 -0.09,-0.39 -0.26,-1.15 -0.35,-1.53 0.73,-6.33 1.86,-12.66 1.3,-19.06 -0.39,-4.5 -0.11,-9.12 1.69,-13.32 3.07,-4.48 8.76,-3.69 13.46,-3.68 7.39,0.31 13.84,-3.78 20.49,-6.37 5.71,1.73 11.87,-1.47 17.36,1.41 1.82,2.23 3.68,4.86 6.7,5.46 3.87,1.71 7.46,-1.27 11.07,-2.29 -2.73,3.1 -5.28,6.41 -8.55,8.96 -4.01,3.12 -8.69,5.18 -13.27,7.28 0.1,2.03 0.08,4.09 0.51,6.09 0.93,1.68 2.81,2.49 4.35,3.5 -0.64,1.63 -1.39,3.22 -1.82,4.92 -1.17,6.18 -1.87,12.81 0.29,18.84 1.73,4.86 6.79,7.05 11.23,8.8 7.08,2.63 13.75,6.2 20.58,9.39 0.74,0.49 1.49,0.98 2.24,1.46 1.46,4.75 4.11,9.27 8.39,11.98 4.66,3.38 10.74,2.93 16.14,2.24 5.41,-0.79 11.09,-1.45 15.81,-4.45 2.54,-2.83 2.27,-6.8 3.43,-10.21 0.81,-2.47 1.19,-5.05 1.77,-7.57 1.28,-2.51 3.39,-4.44 5.86,-5.75 4.04,-2.21 7.83,-4.83 11.52,-7.58 3.1,-2.22 6.98,-3.5 9.49,-6.43 2.71,-4.84 4.77,-11.05 2.06,-16.34 -0.61,-2.2 -0.87,-4.48 -1.06,-6.75 3.35,-1.82 2.73,-6.08 2.01,-9.19 -0.88,-3.28 -4.34,-4.54 -6.97,-6.1 -3.36,-1.72 -6.28,-4.12 -9.32,-6.34 4.87,-2.31 6.62,-7.8 10.24,-11.46 z" />
    <path
       style="fill:#ffffff"
       inkscape:connector-curvature="0"
       id="path3149"
       d="m 99.07,61.42 c 1.21,-0.52 3.03,1.3 2.51,2.5 -1.31,0.65 -3.15,-1.19 -2.51,-2.5 z" />
    <path
       style="fill:#d4aa7b"
       inkscape:connector-curvature="0"
       id="path3151"
       d="m 76.87,65.96 c 2.71,1.75 5.6,0.44 8.18,-0.78 0.97,1.94 1.88,3.9 2.86,5.84 -5.49,-2.88 -11.65,0.32 -17.36,-1.41 2.17,-1.1 4.32,-2.26 6.32,-3.65 z" />
    <path
       style="fill:#d4aa7b"
       inkscape:connector-curvature="0"
       id="path3153"
       d="m 36.14,80.15 0.46,-0.49 c -1.8,4.2 -2.08,8.82 -1.69,13.32 0.56,6.4 -0.57,12.73 -1.3,19.06 -1.04,-2.82 -2.38,-5.51 -3.43,-8.32 -0.42,-4.06 -1.11,-8.09 -2.02,-12.06 1.25,-0.63 2.56,-1.17 3.67,-2.02 0.23,-1.73 0.24,-3.46 0.31,-5.2 1.35,-1.41 2.71,-2.82 4,-4.29 z" />
    <path
       style="fill:#000000"
       inkscape:connector-curvature="0"
       id="path3155"
       d="m 137.88,83.84 c 2.55,-1 4.72,-2.79 7.35,-3.61 3.19,-0.52 6.46,-0.42 9.66,-0.09 4.85,0.8 9.31,3.22 14.23,3.73 2.57,0.11 5.07,-0.59 7.6,-0.97 0.17,0.72 0.51,2.17 0.68,2.89 -1.14,0.52 -2.3,1 -3.47,1.44 -4.81,0.08 -9.69,-0.34 -14.25,-1.97 -3.41,-1.03 -6.86,-2.78 -10.52,-2.19 -2.74,0.65 -5.08,2.29 -7.64,3.39 -4.57,2.12 -9.74,1.46 -14.6,2.03 -0.43,-1.12 -0.84,-2.25 -1.25,-3.37 4.07,-0.19 8.36,0.39 12.21,-1.28 z" />
    <path
       style="fill:#4d4d4d"
       inkscape:connector-curvature="0"
       id="path3157"
       d="m 141.52,86.46 c 2.56,-1.1 4.9,-2.74 7.64,-3.39 3.66,-0.59 7.11,1.16 10.52,2.19 4.56,1.63 9.44,2.05 14.25,1.97 -0.47,0.91 -0.93,1.82 -1.39,2.74 -0.55,-0.66 -1.1,-1.32 -1.66,-1.98 -1.73,3.47 -4.48,6.25 -8.18,7.57 2.35,-2.29 4.81,-4.6 5.93,-7.78 -2.52,0.59 -5.26,0.85 -7.43,2.38 -1.52,1.34 -1.96,3.44 -2.75,5.22 1,0.31 3,0.93 4.01,1.25 -4.46,1.54 -9.05,3.56 -13.88,2.86 -6.26,-0.8 -13.6,-1.3 -17.32,-7.25 3,1.81 5.94,3.72 9.11,5.21 -0.75,-2.08 -0.96,-4.6 -2.71,-6.15 -2.95,-2.17 -6.82,-1.97 -10.29,-1.69 -0.46,0.06 -1.36,0.16 -1.81,0.21 0.34,-0.33 1.02,-1 1.36,-1.33 4.86,-0.57 10.03,0.09 14.6,-2.03 z" />
    <path
       style="fill:#f7dab7"
       inkscape:connector-curvature="0"
       id="path3159"
       d="m 173.93,87.23 c 1.17,-0.44 2.33,-0.92 3.47,-1.44 6.27,0.86 11.43,4.67 17.25,6.78 0.19,2.27 0.45,4.55 1.06,6.75 -3.02,1.47 -0.11,4.86 -1.04,7.28 -1.18,3.68 -2.49,7.99 -6.29,9.76 -2.94,1.6 -5.74,4.19 -9.34,3.7 -8.84,-0.76 -17.1,-5.04 -26.04,-5.18 1.42,-4.13 1.38,-8.64 0.03,-12.78 5.84,-1.12 11.2,-3.71 16.17,-6.89 1.69,-1.3 2.34,-3.45 3.34,-5.24 0.46,-0.92 0.92,-1.83 1.39,-2.74 z" />
    <path
       style="fill:#000000"
       inkscape:connector-curvature="0"
       id="path3161"
       d="m 161.2,90.16 c 2.17,-1.53 4.91,-1.79 7.43,-2.38 -1.12,3.18 -3.58,5.49 -5.93,7.78 3.7,-1.32 6.45,-4.1 8.18,-7.57 0.56,0.66 1.11,1.32 1.66,1.98 -1,1.79 -1.65,3.94 -3.34,5.24 -4.97,3.18 -10.33,5.77 -16.17,6.89 1.35,4.14 1.39,8.65 -0.03,12.78 8.94,0.14 17.2,4.42 26.04,5.18 3.6,0.49 6.4,-2.1 9.34,-3.7 3.8,-1.77 5.11,-6.08 6.29,-9.76 0.93,-2.42 -1.98,-5.81 1.04,-7.28 2.71,5.29 0.65,11.5 -2.06,16.34 -2.51,2.93 -6.39,4.21 -9.49,6.43 -6.47,0.46 -12.81,-0.8 -19.04,-2.4 0.86,3.53 1.06,7.18 0.36,10.76 -0.53,1.8 0.59,3.41 1.3,4.97 -0.58,2.52 -0.96,5.1 -1.77,7.57 -1.16,3.41 -0.89,7.38 -3.43,10.21 -6.47,-0.26 -12.96,-0.43 -19.42,0.01 -3.87,0.63 -7.79,0.91 -11.71,0.84 -1.6,-4.64 -4.55,-8.72 -9.21,-10.62 -0.75,-0.48 -1.5,-0.97 -2.24,-1.46 -3.15,-4.66 -4.69,-10.23 -5.25,-15.79 -5.01,-0.36 -10.06,-1.31 -14.72,-3.22 -6.43,-3.64 -13.15,-9.9 -12.13,-18.02 0.43,-1.7 1.18,-3.29 1.82,-4.92 1.57,-0.3 3.18,-0.44 4.78,-0.18 -2.03,2.38 -5.62,5.15 -4.22,8.71 4.07,9.92 15.07,15.74 25.53,15.36 6.88,-1.08 13.81,-2.2 20.31,-4.79 4.73,-1.93 9.91,-2.4 14.6,-4.39 3.16,-3.35 2.39,-8.5 1.16,-12.55 -5.6,-1.1 -11.35,-1.57 -16.82,-3.26 -4.25,-1 -4.65,-6.14 -6.69,-9.31 3.47,-0.28 7.34,-0.48 10.29,1.69 1.75,1.55 1.96,4.07 2.71,6.15 -3.17,-1.49 -6.11,-3.4 -9.11,-5.21 3.72,5.95 11.06,6.45 17.32,7.25 4.83,0.7 9.42,-1.32 13.88,-2.86 -1.01,-0.32 -3.01,-0.94 -4.01,-1.25 0.79,-1.78 1.23,-3.88 2.75,-5.22 z" />
    <path
       style="fill:#f7dab7"
       inkscape:connector-curvature="0"
       id="path3163"
       d="m 93.5,99.84 c 11.76,2.29 22.31,-4.48 32.06,-10.02 0.45,-0.05 1.35,-0.15 1.81,-0.21 2.04,3.17 2.44,8.31 6.69,9.31 5.47,1.69 11.22,2.16 16.82,3.26 1.23,4.05 2,9.2 -1.16,12.55 -4.69,1.99 -9.87,2.46 -14.6,4.39 -6.5,2.59 -13.43,3.71 -20.31,4.79 -10.46,0.38 -21.46,-5.44 -25.53,-15.36 -1.4,-3.56 2.19,-6.33 4.22,-8.71 z" />
    <path
       style="fill:#a36638"
       inkscape:connector-curvature="0"
       id="path3165"
       d="m 30.18,103.72 c 1.05,2.81 2.39,5.5 3.43,8.32 0.09,0.38 0.26,1.14 0.35,1.53 -2.1,11.46 0.12,23.27 -2.78,34.62 -2.58,10.82 -3.51,21.93 -5,32.93 -0.82,6.92 -3.71,13.61 -3.02,20.68 0.99,10.32 1.03,20.71 0.46,31.05 -0.87,12.15 -5.74,23.48 -10.94,34.33 -3.33,-1.56 -6.2,-3.91 -8.76,-6.53 4.55,-4.66 5.01,-11.49 7.57,-17.2 2.55,-5.56 4.22,-11.46 5.56,-17.42 2.43,-9.8 -0.65,-20.1 2.14,-29.85 1.81,-6.01 1.64,-12.4 3.58,-18.38 1.86,-6.1 1.15,-12.53 1.21,-18.8 -0.26,-7.8 0.56,-15.59 1.76,-23.29 1.16,-7.27 4.28,-14.21 4.28,-21.65 0.06,-3.45 0.13,-6.9 0.16,-10.34 z" />
    <path
       style="fill:#d4aa7b"
       inkscape:connector-curvature="0"
       id="path3167"
       d="m 87.19,123.78 c -2.16,-6.03 -1.46,-12.66 -0.29,-18.84 -1.02,8.12 5.7,14.38 12.13,18.02 4.66,1.91 9.71,2.86 14.72,3.22 0.56,5.56 2.1,11.13 5.25,15.79 -6.83,-3.19 -13.5,-6.76 -20.58,-9.39 -4.44,-1.75 -9.5,-3.94 -11.23,-8.8 z" />
    <path
       style="fill:#c57a43"
       inkscape:connector-curvature="0"
       id="path3169"
       d="m 33.96,113.57 c 1.7,3.88 3.47,7.89 6.58,10.88 7.22,6.88 15.86,12 24.66,16.59 0.92,0.96 1.81,1.95 2.7,2.94 3.98,8.25 10.34,16.19 19.69,18.36 l 0.69,0.2 c -4.56,10.72 -7.29,22.08 -10.56,33.23 -1.87,6.12 -1.71,12.6 -3.07,18.82 -1.73,8.11 1.27,16.26 0.28,24.42 -0.96,7.61 -2.44,15.17 -4.37,22.6 -6.74,1.99 -13.88,1.79 -20.74,3.21 -6.1,0.71 -11.55,4.26 -17.77,4.22 -6.49,0.12 -13.14,0.33 -19.37,-1.86 5.2,-10.85 10.07,-22.18 10.94,-34.33 0.57,-10.34 0.53,-20.73 -0.46,-31.05 -0.69,-7.07 2.2,-13.76 3.02,-20.68 1.49,-11 2.42,-22.11 5,-32.93 2.9,-11.35 0.68,-23.16 2.78,-34.62 z" />
    <path
       style="fill:#4d4d4d"
       inkscape:connector-curvature="0"
       id="path3171"
       d="m 143.95,119.06 c 3.55,-1 7.15,-2.41 10.91,-1.97 2.92,0.36 5.73,1.27 8.55,2.08 0.35,2.89 1.27,5.69 1.54,8.59 -0.94,1.42 -2.59,2.15 -3.9,3.17 -1.21,-1.84 -2.38,-3.7 -3.53,-5.57 -5.65,1.52 -9.19,-3.85 -13.57,-6.3 z" />
    <path
       style="fill:#ed5673"
       inkscape:connector-curvature="0"
       id="path3173"
       d="m 138.64,120.59 c 3.43,-1.47 7.35,0.49 9.63,3.14 1.73,1.54 2.96,3.7 4.99,4.87 l 0.62,0.35 c 1.18,1.99 2.36,4.02 3.04,6.25 0.36,2.1 -0.57,4.13 -0.96,6.17 -5.33,0.28 -10.61,1.08 -15.89,1.76 -2.25,-4.7 -4.13,-9.56 -6.46,-14.23 -1.14,1.12 -2.28,2.23 -3.43,3.34 -1.98,-2.05 -4.26,-3.76 -6.61,-5.37 -0.23,-0.48 -0.69,-1.44 -0.93,-1.92 5.44,-1.04 10.78,-2.5 16,-4.36 z" />
    <path
       style="fill:#d4aa7b"
       inkscape:connector-curvature="0"
       id="path3175"
       d="m 165.12,119.69 c 6.23,1.6 12.57,2.86 19.04,2.4 -3.69,2.75 -7.48,5.37 -11.52,7.58 -2.47,1.31 -4.58,3.24 -5.86,5.75 -0.71,-1.56 -1.83,-3.17 -1.3,-4.97 0.7,-3.58 0.5,-7.23 -0.36,-10.76 z" />
    <path
       style="fill:#000000"
       inkscape:connector-curvature="0"
       id="path3177"
       d="m 136.83,123.63 c 3.3,1.3 4.64,4.72 5.4,7.93 -2.34,-2.24 -3.68,-5.24 -5.4,-7.93 z" />
    <path
       style="fill:#ffffff"
       inkscape:connector-curvature="0"
       id="path3179"
       d="m 115.63,126.4 c 2.32,-0.59 4.59,-1.44 7.01,-1.45 0.24,0.48 0.7,1.44 0.93,1.92 0.62,2.05 2.05,3.7 4.09,4.42 -0.59,1.63 -0.69,3.37 -0.74,5.08 1.38,-2.58 4.29,-3.41 6.71,-4.71 0.57,5.08 3.92,9.48 3.38,14.67 1.08,-0.95 2.14,-1.91 3.24,-2.84 0.41,0.92 0.81,1.85 1.21,2.79 0.28,-1.62 1.41,-2.56 3.02,-2.61 0.32,0.76 0.97,2.27 1.29,3.03 0.15,-1.05 0.45,-3.15 0.6,-4.2 1.13,0.78 2.21,1.64 3.25,2.54 0.31,-1.43 1.19,-2.27 2.64,-2.53 -0.39,1.37 -0.77,2.74 -1.17,4.1 2.11,-0.74 2.11,-3.2 3.09,-4.89 0.82,1.31 1.66,2.62 2.59,3.86 0.2,-1.74 0.13,-3.51 0.49,-5.23 1.51,-3.32 4.68,-5.47 6.31,-8.74 2.76,3.57 0.05,7.37 -0.92,11.04 -0.59,1.59 -0.68,3.78 -2.59,4.41 -2.04,1.32 -4.54,0.74 -6.8,1.15 -4.64,1.43 -9.54,0.57 -14.31,0.82 -3.06,0.34 -6.79,-0.99 -7.83,-4.14 -0.49,-1.94 -2.03,-3.3 -3.11,-4.91 -3.58,-5.11 -11.48,-6.6 -12.38,-13.58 z" />
    <path
       style="fill:#ffffff"
       inkscape:connector-curvature="0"
       id="path3181"
       d="m 153.19,127.25 c 1.41,0.47 2.51,-0.36 3.52,-1.27 0.54,2.63 2.22,4.71 4.15,6.48 -0.61,0.99 -1.16,2.01 -1.82,2.97 -1.81,-2.1 -2.27,-5.42 -5.16,-6.48 l -0.62,-0.35 c -0.02,-0.34 -0.05,-1.01 -0.07,-1.35 z" />
    <path
       style="fill:#c57a43"
       inkscape:connector-curvature="0"
       id="path3183"
       d="m 184.78,138.8 c 1.92,-2.98 5.44,-4.02 8.69,-4.82 -4.29,8.53 -7.08,18.55 -4.5,28.02 1.42,5.86 1.91,11.88 2.23,17.88 1.02,6.1 3.41,11.96 6.69,17.19 7.63,13.32 11.32,28.39 14.84,43.19 1.69,6.95 1.12,14.11 1.49,21.18 1.29,0.31 2.58,0.61 3.88,0.92 -4.9,4.57 -12.01,3.68 -18.15,3.68 -7.24,0.01 -14.17,-2.23 -21.01,-4.34 0.4,-6.66 2,-13.44 0.38,-20.06 -2.97,-11.55 -6.68,-22.9 -9.38,-34.53 -3.04,-12.98 -8.23,-25.71 -8.02,-39.24 0.01,-1.28 0.03,-2.55 0.06,-3.83 4.3,-1.47 9.76,-1.68 12.57,-5.7 3.8,-6.31 5.99,-13.5 10.23,-19.54 z" />
    <path
       style="fill:#4d4d4d"
       inkscape:connector-curvature="0"
       id="path3185"
       d="m 116.62,134.84 c 5.59,2.46 9.96,6.96 12.89,12.25 -5.12,-3.01 -11.08,-6.1 -12.89,-12.25 z" />
    <path
       style="fill:#000000"
       inkscape:connector-curvature="0"
       id="path3187"
       d="m 63.75,135.23 c 2.56,1.16 3.62,3.76 5.15,5.91 7.95,7.86 18.96,11.86 29.93,13.03 10.18,1.39 19.6,5.78 29.4,8.61 6.46,1.82 13.2,1.11 19.82,1.25 5.22,0.21 10.17,-1.66 15.18,-2.84 3.81,-0.82 7.29,-3.4 11.32,-2.85 -2.81,4.02 -8.27,4.23 -12.57,5.7 -8.4,2.92 -17.32,1.77 -26.03,1.99 -10.32,0.08 -19.47,-5.33 -29.28,-7.73 -5.34,-1.82 -11.04,-1.97 -16.49,-3.34 -8.17,-1.89 -16.17,-5.05 -22.28,-10.98 -0.89,-0.99 -1.78,-1.98 -2.7,-2.94 -0.65,-1.89 -1.1,-3.84 -1.45,-5.81 z" />
    <path
       style="fill:#a36638"
       inkscape:connector-curvature="0"
       id="path3189"
       d="m 67.9,143.98 c 6.11,5.93 14.11,9.09 22.28,10.98 -0.83,2.47 -1.68,4.93 -2.59,7.38 -9.35,-2.17 -15.71,-10.11 -19.69,-18.36 z" />
    <path
       style="fill:#d4aa7b"
       inkscape:connector-curvature="0"
       id="path3191"
       d="m 121.24,143.43 c 4.66,1.9 7.61,5.98 9.21,10.62 3.92,0.07 7.84,-0.21 11.71,-0.84 6.46,-0.44 12.95,-0.27 19.42,-0.01 -4.72,3 -10.4,3.66 -15.81,4.45 -5.4,0.69 -11.48,1.14 -16.14,-2.24 -4.28,-2.71 -6.93,-7.23 -8.39,-11.98 z" />
    <path
       style="fill:#4d4d4d"
       inkscape:connector-curvature="0"
       id="path3193"
       d="m 129.62,149.23 c 5.49,2.43 11.57,1.83 17.4,1.84 5.29,0 10.46,-1.2 15.72,-1.61 -2.32,3.77 -7.09,2.34 -10.76,2.51 -7,-0.49 -13.91,0.87 -20.88,1.1 -0.5,-1.28 -0.99,-2.56 -1.48,-3.84 z" />
    <path
       style="fill:#d4aa7b"
       inkscape:connector-curvature="0"
       id="path3195"
       d="m 90.18,154.96 c 5.45,1.37 11.15,1.52 16.49,3.34 9.81,2.4 18.96,7.81 29.28,7.73 8.71,-0.22 17.63,0.93 26.03,-1.99 -0.03,1.28 -0.05,2.55 -0.06,3.83 -6.36,2.34 -12.5,5.44 -19.19,6.74 -7.45,1.36 -14.58,-1.82 -21.62,-3.72 -10.9,-2.96 -21.88,-5.59 -32.83,-8.35 l -0.69,-0.2 c 0.91,-2.45 1.76,-4.91 2.59,-7.38 z" />
    <path
       style="fill:#fbca92"
       inkscape:connector-curvature="0"
       id="path3197"
       d="m 88.28,162.54 c 10.95,2.76 21.93,5.39 32.83,8.35 7.04,1.9 14.17,5.08 21.62,3.72 6.69,-1.3 12.83,-4.4 19.19,-6.74 -0.21,13.53 4.98,26.26 8.02,39.24 2.7,11.63 6.41,22.98 9.38,34.53 1.62,6.62 0.02,13.4 -0.38,20.06 -1.74,1.69 -3.4,3.5 -5.47,4.8 -2.53,1.49 -5.58,1.49 -8.42,1.58 -26.7,-0.16 -53.4,-0.05 -80.1,-0.06 -5.5,0.13 -10.96,-2.03 -14.39,-6.41 1.93,-7.43 3.41,-14.99 4.37,-22.6 0.99,-8.16 -2.01,-16.31 -0.28,-24.42 1.36,-6.22 1.2,-12.7 3.07,-18.82 3.27,-11.15 6,-22.51 10.56,-33.23 z" />
  </g>
  <g
     id="g3823"
     transform="translate(-1.2377601e-5,0)">
    <path
       sodipodi:type="star"
       style="fill:#000000;fill-opacity:0.2869955;stroke:none;filter:url(#filter3731)"
       id="path3124"
       sodipodi:sides="3"
       sodipodi:cx="13.857143"
       sodipodi:cy="24.714287"
       sodipodi:r1="25.596954"
       sodipodi:r2="12.798477"
       sodipodi:arg1="0"
       sodipodi:arg2="1.0471976"
       inkscape:flatsided="false"
       inkscape:rounded="0"
       inkscape:randomized="0"
       d="M 39.454098,24.714287 20.256381,35.798093 1.0586662,46.8819 l 0,-22.167614 0,-22.1676119 19.1977168,11.0838069 z"
       transform="matrix(1.8904177,0,0,1.8904177,165.1895,123.30667)" />
    <path
       sodipodi:type="star"
       style="fill:url(#linearGradient3821);fill-opacity:1;stroke:#185f7c;stroke-width:1.05477989;stroke-linejoin:round;stroke-miterlimit:4;stroke-opacity:1;stroke-dasharray:none"
       id="path3126"
       sodipodi:sides="3"
       sodipodi:cx="13.857143"
       sodipodi:cy="24.714287"
       sodipodi:r1="25.596954"
       sodipodi:r2="12.798477"
       sodipodi:arg1="0"
       sodipodi:arg2="1.0471976"
       inkscape:flatsided="false"
       inkscape:rounded="0"
       inkscape:randomized="0"
       d="M 39.454098,24.714287 20.256381,35.798093 1.0586662,46.8819 l 0,-22.167614 0,-22.1676119 19.1977168,11.0838069 z"
       transform="matrix(1.7004495,0,0,1.7004495,167.71794,127.82984)" />
    <path
       inkscape:connector-curvature="0"
       style="fill:none;stroke:url(#linearGradient3049);stroke-width:1.79360008;stroke-linecap:butt;stroke-linejoin:miter;stroke-miterlimit:4;stroke-opacity:1;stroke-dasharray:none"
       d="m 171.2285,203.57673 0,-68.34076 59.03289,34.08267"
       id="path3128"
       sodipodi:nodetypes="ccc" />
  </g>
  <text
     xml:space="preserve"
     style="font-style:normal;font-variant:normal;font-weight:bold;font-stretch:normal;font-size:120.15947723px;line-height:125%;font-family:'Oswald Stencil';-inkscape-font-specification:'Oswald Stencil, Bold';text-align:start;letter-spacing:0px;word-spacing:0px;writing-mode:lr-tb;text-anchor:start;fill:#ffffff;fill-opacity:1;stroke:none;stroke-width:1px;stroke-linecap:butt;stroke-linejoin:miter;stroke-opacity:1;"
     x="231.70042"
     y="153.19789"
     id="text3422"
     sodipodi:linespacing="125%"
     transform="scale(0.93253648,1.0723441)"><tspan
       sodipodi:role="line"
       id="tspan3424"
       x="231.70042"
       y="153.19789">w0bm.com</tspan></text>
</svg>
