<?xml version="1.0" encoding="UTF-8" standalone="no"?>
<svg
   xmlns:dc="http://purl.org/dc/elements/1.1/"
   xmlns:cc="http://creativecommons.org/ns#"
   xmlns:rdf="http://www.w3.org/1999/02/22-rdf-syntax-ns#"
   xmlns:svg="http://www.w3.org/2000/svg"
   xmlns="http://www.w3.org/2000/svg"
   xmlns:sodipodi="http://sodipodi.sourceforge.net/DTD/sodipodi-0.dtd"
   xmlns:inkscape="http://www.inkscape.org/namespaces/inkscape"
   enable-background="new 206 206 100 100"
   id="Слой_1"
   version="1.1"
   viewBox="206 206 100 100"
   xml:space="preserve"
   inkscape:version="0.91 r13725"
   sodipodi:docname="1466054628_heartG.svg"><metadata
     id="metadata3460"><rdf:RDF><cc:Work
         rdf:about=""><dc:format>image/svg+xml</dc:format><dc:type
           rdf:resource="http://purl.org/dc/dcmitype/StillImage" /></cc:Work></rdf:RDF></metadata><defs
     id="defs3458" /><sodipodi:namedview
     pagecolor="#ffffff"
     bordercolor="#666666"
     borderopacity="1"
     objecttolerance="10"
     gridtolerance="10"
     guidetolerance="10"
     inkscape:pageopacity="0"
     inkscape:pageshadow="2"
     inkscape:window-width="1406"
     inkscape:window-height="795"
     id="namedview3456"
     showgrid="false"
     inkscape:zoom="4.72"
     inkscape:cx="45.387905"
     inkscape:cy="46.694533"
     inkscape:window-x="262"
     inkscape:window-y="117"
     inkscape:window-maximized="0"
     inkscape:current-layer="g3419" /><g
     id="g3419"><radialGradient
       cx="42.1417"
       cy="-715.3359"
       gradientTransform="matrix(26.2144 0 0 1.5508 -848.72 1406.8464)"
       gradientUnits="userSpaceOnUse"
       id="SVGID_1_"
       r="1.8956"><stop
         offset="0"
         style="stop-color:#878586"
         id="stop3422" /><stop
         offset="6.665325e-02"
         style="stop-color:#A4A1A2;stop-opacity:0.9333"
         id="stop3424" /><stop
         offset="0.1498"
         style="stop-color:#C0BFBF;stop-opacity:0.8502"
         id="stop3426" /><stop
         offset="0.2431"
         style="stop-color:#D7D6D7;stop-opacity:0.7569"
         id="stop3428" /><stop
         offset="0.3491"
         style="stop-color:#E9E9E9;stop-opacity:0.6509"
         id="stop3430" /><stop
         offset="0.4751"
         style="stop-color:#F6F5F6;stop-opacity:0.5249"
         id="stop3432" /><stop
         offset="0.6408"
         style="stop-color:#FEFEFE;stop-opacity:0.3592"
         id="stop3434" /><stop
         offset="1"
         style="stop-color:#FFFFFF;stop-opacity:0"
         id="stop3436" /></radialGradient><g
       id="g3440"><path
         d="M277.9,211.1c-8.7,0-16.3,4.1-21.3,10.4c-5-6.3-12.6-10.4-21.3-10.4c-9.4,0-17.7,4.8-22.6,12.1h87.7     C295.6,216,287.2,211.1,277.9,211.1z"
         fill="#563888"
         id="path3442" /><path
         d="M304.9,235.1c-0.5-4.4-2.2-8.6-4.6-12.1l-87.5-0.1c-2.4,3.5-4,7.7-4.5,12.1H304.9z"
         fill="#3B559E"
         id="path3444" /><path
         d="M208.1,238.4c0,3,0.5,5.9,1.2,8.7H304c0.7-2.8,1-5.7,1-8.7c0-1.1,0-2.2-0.1-3.3h-96.6     C208.2,236.2,208.1,237.3,208.1,238.4z"
         fill="#3C9EDB"
         id="path3446" /><path
         d="M214.4,259.1h84.4c2.3-3.8,4.1-7.8,5.2-12h-94.7C210.3,251.3,212.1,255.3,214.4,259.1z"
         fill="#399947"
         id="path3448" /><path
         d="M223.7,271.1h65.7c3.5-3.7,6.8-7.7,9.4-12h-84.4C217,263.4,220.2,267.4,223.7,271.1z"
         fill="#EADC3A"
         id="path3450" /><path
         d="M237.4,283.1h38.2c4.6-3.4,9.4-7.4,13.8-12h-65.7C228.1,275.7,232.9,279.7,237.4,283.1z"
         fill="#D7801C"
         id="path3452" /><path
         d="M256.5,295c0,0,8.9-4.4,19.1-11.9h-38.2C247.6,290.7,256.5,295,256.5,295z"
         fill="#C3171A"
         id="path3454" /></g></g></svg>